<svg width="29" height="29" viewBox="0 0 29 29" fill="none" xmlns="http://www.w3.org/2000/svg">
<g clip-path="url(#clip0)">
<path d="M28.7507 22.402L25.6373 19.2883C25.3163 19.964 24.7023 20.4832 23.9232 20.6683L23.4991 20.769L23.3983 21.1934C23.2262 21.9184 22.4165 23.2835 20.7124 23.145L20.2773 23.1096L20.0504 23.4821C19.6684 24.1089 19.0273 24.5373 18.3145 24.6644L22.4016 28.7511C22.6098 28.9593 22.911 29.0449 23.1976 28.9772C23.4842 28.9095 23.7152 28.6983 23.8084 28.419L24.9608 24.9612L28.4186 23.8087C28.698 23.7156 28.9092 23.4845 28.9768 23.1979C29.0445 22.9113 28.9589 22.6101 28.7507 22.402Z" fill="#205DB2"/>
<path d="M8.94909 23.4822L8.72219 23.1098L8.28714 23.1451C6.58299 23.2837 5.77337 21.9185 5.60124 21.1936L5.50047 20.7691L5.07635 20.6684C4.29726 20.4833 3.68322 19.9641 3.36218 19.2885L0.248869 22.402C0.0406578 22.6103 -0.0449262 22.9114 0.0227593 23.198C0.0903882 23.4846 0.301658 23.7157 0.580953 23.8088L4.03875 24.9613L5.19122 28.4191C5.28433 28.6985 5.51543 28.9097 5.80203 28.9773C6.08863 29.0449 6.38979 28.9594 6.598 28.7512L10.6851 24.6645C9.97225 24.5374 9.33108 24.109 8.94909 23.4822Z" fill="#205DB2"/>
<path d="M18.6001 22.5979L19.3719 21.3314L20.8503 21.4515C21.2676 21.4853 21.6488 21.2092 21.7456 20.801L22.0884 19.3579L23.5311 19.0152C23.9391 18.9183 24.2155 18.5379 24.1815 18.1198L24.0614 16.6418L25.3279 15.87C25.6861 15.6517 25.8313 15.2047 25.6699 14.8175L25.0992 13.4488L26.065 12.3234C26.3382 12.0052 26.3383 11.5351 26.0652 11.2168L25.0992 10.0911L25.6699 8.72216C25.8313 8.33502 25.6861 7.88796 25.3279 7.66966L24.0614 6.89788L24.1815 5.4199C24.2154 5.00178 23.9391 4.62144 23.5311 4.52447L22.0884 4.18185L21.7456 2.7387C21.6487 2.33049 21.2676 2.05437 20.8503 2.08818L19.3719 2.20826L18.6001 0.941778C18.3818 0.583469 17.9345 0.438413 17.5475 0.599782L16.1788 1.17083L15.0535 0.204883C14.7353 -0.0682944 14.2651 -0.0682944 13.9468 0.204883L12.8216 1.17072L11.4529 0.599669C11.0657 0.438186 10.6187 0.583413 10.4003 0.941665L9.6285 2.20815L8.15012 2.08807C7.732 2.0546 7.35171 2.33038 7.2548 2.73859L6.91207 4.18174L5.46938 4.52447C5.06128 4.62144 4.78493 5.00178 4.81891 5.4199L4.93899 6.89788L3.67257 7.66966C3.31437 7.88796 3.16909 8.33497 3.33051 8.72216L3.90122 10.0911L2.93527 11.2168C2.66215 11.5351 2.66221 12.0052 2.93539 12.3234L3.90122 13.4488L3.33063 14.8175C3.1692 15.2047 3.31448 15.6517 3.67268 15.87L4.93911 16.6418L4.81903 18.1198C4.7851 18.5379 5.06139 18.9183 5.46949 19.0152L6.91218 19.3579L7.25491 20.801C7.35188 21.2092 7.73217 21.485 8.15023 21.4515L9.62861 21.3314L10.4005 22.5979C10.6187 22.9562 11.0658 23.1014 11.4531 22.9399L12.8217 22.3689L13.9469 23.3347C14.2652 23.6078 14.7354 23.6078 15.0536 23.3347L16.1789 22.3689L17.5475 22.9399C17.9345 23.1013 18.3818 22.9562 18.6001 22.5979ZM14.191 17.8309C13.8593 18.1626 13.3212 18.1627 12.9894 17.8309L7.98428 12.8257C7.65248 12.494 7.65248 11.956 7.98428 11.6242L10.5583 9.05017C10.89 8.71837 11.428 8.71837 11.7598 9.05017L13.5902 10.8805L17.6956 6.77508C18.0273 6.44328 18.5653 6.44328 18.8971 6.77508L21.4711 9.34906C21.8029 9.68086 21.8029 10.2188 21.4711 10.5506L14.191 17.8309Z" fill="#205DB2"/>
<path d="M14.1915 12.6828C13.8597 13.0146 13.3218 13.0146 12.99 12.6828L11.1596 10.8525L9.78711 12.2249L13.5908 16.0285L19.6694 9.94985L18.297 8.57739L14.1915 12.6828Z" fill="#205DB2"/>
</g>
<defs>
<clipPath id="clip0">
<rect width="29" height="29" fill="white"/>
</clipPath>
</defs>
</svg>
