<svg width="13" height="10" viewBox="0 0 13 10" fill="none" xmlns="http://www.w3.org/2000/svg">
<path fill-rule="evenodd" clip-rule="evenodd" d="M1.89089 9.29485C2.01239 9.41618 2.1715 9.47677 2.33076 9.47677C2.49019 9.47677 2.64977 9.41587 2.77126 9.29406C3.01426 9.0506 3.01378 8.65652 2.77048 8.41353C1.78687 7.43181 1.24502 6.12652 1.24502 4.73829C1.24502 3.35006 1.78687 2.04493 2.77048 1.0632C3.01378 0.820213 3.01426 0.42614 2.77126 0.182834C2.52843 -0.0606294 2.1342 -0.0609442 1.89089 0.18189C0.671531 1.39889 0 3.01705 0 4.73845C0 6.45969 0.671531 8.07784 1.89089 9.29485ZM10.1411 9.29398C10.2626 9.41579 10.4222 9.4767 10.5817 9.4767C10.7409 9.4767 10.9 9.41611 11.0215 9.29492C12.2408 8.07792 12.9124 6.45961 12.9124 4.73837C12.9125 3.01713 12.2408 1.39897 11.0215 0.181968C10.7782 -0.0610229 10.3841 -0.0605508 10.1411 0.182755C9.8981 0.426219 9.89857 0.820292 10.1419 1.06328C11.1255 2.04501 11.6673 3.35014 11.6673 4.73837C11.6673 6.1266 11.1255 7.43173 10.1419 8.41345C9.89857 8.65644 9.8981 9.05052 10.1411 9.29398ZM9.17335 7.64379C9.01377 7.64379 8.85419 7.58289 8.73269 7.46092C8.4897 7.21761 8.49017 6.82338 8.73348 6.58055C9.22654 6.08843 9.49802 5.43421 9.49802 4.73844C9.49802 4.04268 9.22654 3.38846 8.73348 2.89634C8.49017 2.65334 8.4897 2.25927 8.73269 2.01581C8.97552 1.7725 9.36975 1.77203 9.61306 2.01502C10.3419 2.74242 10.7432 3.70951 10.7432 4.73844C10.7432 5.76722 10.3419 6.73446 9.61306 7.46186C9.49157 7.5832 9.33246 7.64379 9.17335 7.64379ZM7.38404 5.66293C6.8724 6.17346 6.04318 6.17346 5.53155 5.66293C5.02007 5.1524 5.02007 4.32459 5.53155 3.81406C6.04318 3.30352 6.8724 3.30352 7.38404 3.81406C7.89552 4.32459 7.89552 5.1524 7.38404 5.66293ZM3.73907 7.64385C3.57996 7.64385 3.42085 7.58326 3.2992 7.46192C2.57038 6.73452 2.16907 5.76728 2.16907 4.7385C2.16907 3.70957 2.57038 2.74248 3.2992 2.01508C3.5425 1.77209 3.93673 1.7724 4.17957 2.01587C4.42256 2.25917 4.42208 2.6534 4.17878 2.89639C3.68571 3.38851 3.41424 4.04273 3.41424 4.7385C3.41424 5.43427 3.68571 6.08849 4.17878 6.58061C4.42208 6.82344 4.42256 7.21767 4.17957 7.46098C4.05807 7.58279 3.89849 7.64385 3.73907 7.64385Z" fill="white"/>
</svg>
