<svg width="24" height="20" viewBox="0 0 24 20" fill="none" xmlns="http://www.w3.org/2000/svg">
<path d="M21.1136 3.4996H17.6439V3.14313C17.6439 1.55057 16.3513 0.258057 14.7588 0.258057H9.24058C7.64738 0.258057 6.35551 1.55057 6.35551 3.14313V3.4996H2.88508C1.29187 3.4996 0 4.79148 0 6.38468V16.8569C0 18.4494 1.29187 19.7419 2.88508 19.7419H21.1149C22.7081 19.7419 24 18.4494 24 16.8569V6.38468C23.9987 4.79083 22.7068 3.4996 21.1136 3.4996ZM11.9987 16.7492C8.99311 16.7492 6.54913 14.3052 6.54913 11.2996C6.54913 8.2946 8.99311 5.84998 11.9987 5.84998C15.0043 5.84998 17.4483 8.29396 17.4483 11.2996C17.4483 14.3052 15.0037 16.7492 11.9987 16.7492ZM14.8838 11.2996C14.8838 12.8889 13.5887 14.1846 11.9987 14.1846C10.4087 14.1846 9.11364 12.8889 9.11364 11.2996C9.11364 9.70957 10.4087 8.41449 11.9987 8.41449C13.5887 8.41449 14.8838 9.70957 14.8838 11.2996Z" fill="#B2C6D0"/>
</svg>
