<svg width="45" height="46" viewBox="0 0 45 46" fill="none" xmlns="http://www.w3.org/2000/svg">
<g clip-path="url(#clip0)">
<path d="M44.0728 11.9576C43.5541 9.98703 42.0342 8.43372 40.1068 7.90309C36.5854 6.91797 22.4996 6.91797 22.4996 6.91797C22.4996 6.91797 8.41412 6.91797 4.89267 7.86554C3.00235 8.39582 1.44538 9.98738 0.926624 11.9576C0 15.557 0 23.0217 0 23.0217C0 23.0217 0 30.524 0.926624 34.0858C1.44573 36.056 2.96527 37.6097 4.89302 38.1403C8.4512 39.1254 22.4999 39.1254 22.4999 39.1254C22.4999 39.1254 36.5854 39.1254 40.1068 38.1778C42.0345 37.6476 43.5541 36.0939 44.0732 34.1237C44.9998 30.524 44.9998 23.0596 44.9998 23.0596C44.9998 23.0596 45.0369 15.557 44.0728 11.9576Z" fill="#FF0000"/>
<path d="M18.0149 29.9179L29.728 23.0217L18.0149 16.1255V29.9179Z" fill="white"/>
</g>
<defs>
<clipPath id="clip0">
<rect width="45" height="46" fill="white"/>
</clipPath>
</defs>
</svg>
