<svg width="18" height="18" viewBox="0 0 18 18" fill="none" xmlns="http://www.w3.org/2000/svg">
<path fill-rule="evenodd" clip-rule="evenodd" d="M8.92031 0.230469C13.7096 0.230469 17.5921 4.11295 17.5921 8.90225C17.5921 13.2305 14.421 16.8181 10.2753 17.4687V11.4089H12.2958L12.2958 11.4089H12.2959L12.6803 8.90225H10.2753V7.27561C10.2753 6.76127 10.4643 6.25666 11.0133 6.03649C11.1223 5.99274 11.2457 5.96022 11.3845 5.94109C11.4786 5.92814 11.5798 5.92134 11.6885 5.92134H12.7819V5.92132H12.782V3.78725C12.782 3.78725 11.7896 3.61788 10.8408 3.61788C10.3456 3.61788 9.8933 3.69291 9.49337 3.83942C9.25719 3.92594 9.03928 4.03739 8.8416 4.17304C8.03509 4.72645 7.56532 5.6826 7.56532 6.99176V8.90225H5.36353V8.90226H5.3635V11.4089H7.56532V17.4687C3.41965 16.8181 0.248535 13.2305 0.248535 8.90225C0.248535 4.11295 4.13102 0.230469 8.92031 0.230469Z" fill="#205DB2"/>
</svg>
