<svg width="15" height="15" viewBox="0 0 15 15" fill="none" xmlns="http://www.w3.org/2000/svg">
<path fill-rule="evenodd" clip-rule="evenodd" d="M7.09509 0.807617H4.1131C3.51485 0.807617 2.98763 0.949683 2.59049 1.0567C2.5098 1.07844 2.43449 1.09874 2.36503 1.1161C1.8509 1.32175 1.43959 1.52741 1.1311 1.93872C0.719796 2.35003 0.514142 2.76134 0.308487 3.17265L0.308485 3.17265C0.102831 3.58396 0 4.20092 0 4.92072V7.90272V10.8847C0 11.483 0.142066 12.0102 0.249083 12.4073C0.270826 12.488 0.291122 12.5633 0.308485 12.6328C0.51414 13.1469 0.719794 13.5582 1.1311 13.8667C1.54241 14.1752 1.95372 14.4837 2.36503 14.6893C2.77634 14.895 3.3933 14.9978 4.1131 14.9978H7.09509H10.0771C10.6753 14.9978 11.2026 14.8557 11.5997 14.7487C11.6804 14.727 11.7557 14.7067 11.8252 14.6893C12.3393 14.4837 12.7506 14.278 13.0591 13.8667C13.3676 13.4554 13.676 13.0441 13.8817 12.6328C14.0874 12.2215 14.1902 11.6045 14.1902 10.8847V7.90272V4.92072C14.1902 4.32247 14.0481 3.79525 13.9411 3.39811C13.9194 3.31742 13.8991 3.2421 13.8817 3.17265C13.676 2.65851 13.4704 2.2472 13.0591 1.93872C12.6478 1.52742 12.2365 1.32176 11.8252 1.11611L11.8252 1.1161C11.4138 0.910445 10.7969 0.807617 10.0771 0.807617H7.09509ZM11.8248 4.20081C11.8248 4.71495 11.4135 5.02343 11.0022 5.02343C10.5909 5.02343 10.1796 4.61212 10.1796 4.20081C10.1796 3.68667 10.5909 3.37819 11.0022 3.37819C11.4135 3.37819 11.8248 3.68667 11.8248 4.20081ZM7.09461 10.3703C5.75785 10.3703 4.72957 9.34203 4.72957 8.00527C4.72957 6.66852 5.75785 5.64024 7.09461 5.64024C8.43136 5.64024 9.45964 6.66852 9.45964 8.00527C9.45964 9.34203 8.43136 10.3703 7.09461 10.3703ZM7.09461 4.30348C5.03806 4.30348 3.39282 5.94872 3.39282 8.00527C3.39282 10.0618 5.03806 11.7071 7.09461 11.7071C9.15116 11.7071 10.7964 10.0618 10.7964 8.00527C10.7964 5.94872 9.15116 4.30348 7.09461 4.30348Z" fill="#205DB2"/>
</svg>
