<svg width="14" height="11" viewBox="0 0 14 11" fill="none" xmlns="http://www.w3.org/2000/svg">
<path d="M12.3491 1.74016C12.9274 1.67705 13.487 1.52377 14 1.30738C13.6176 1.86639 13.1326 2.35328 12.5636 2.74098C12.573 2.8582 12.573 2.97541 12.573 3.10164C12.573 6.77131 9.68155 11 4.4024 11C2.77948 11 1.26849 10.5402 0 9.75574C0.223851 9.78279 0.457029 9.7918 0.690207 9.7918C2.03331 9.7918 3.27382 9.35 4.25316 8.60164C3.00333 8.57459 1.94004 7.77213 1.57628 6.67213C1.7535 6.7082 1.93071 6.71721 2.11726 6.71721C2.37841 6.71721 2.63025 6.68115 2.87275 6.61803C1.55763 6.36557 0.568954 5.24754 0.568954 3.9041C0.568954 3.89508 0.568954 3.87705 0.568954 3.86803C0.960693 4.07541 1.39907 4.20164 1.87475 4.21066C1.1006 3.71475 0.596935 2.86721 0.596935 1.90246C0.596935 1.39754 0.736842 0.919672 0.988674 0.504918C2.4064 2.18197 4.52365 3.29098 6.90207 3.4082C6.85543 3.20082 6.82745 2.99344 6.82745 2.77705C6.82745 1.24426 8.11459 0 9.7002 0C10.521 0 11.2672 0.333607 11.7988 0.87459C12.4517 0.748361 13.0673 0.522951 13.6176 0.198361C13.4031 0.847541 12.946 1.39754 12.3491 1.74016Z" fill="#BABABA"/>
</svg>
