<svg width="33" height="33" viewBox="0 0 33 33" fill="none" xmlns="http://www.w3.org/2000/svg">
<path fill-rule="evenodd" clip-rule="evenodd" d="M16.351 0.114746C25.2994 0.114746 32.5535 7.36886 32.5535 16.3173C32.5535 24.4043 26.6285 31.1075 18.8826 32.323V21.0008H22.6579L23.3763 16.3173H23.3762L23.3762 16.3171H18.8826V13.278C18.8826 11.9967 19.5105 10.7477 21.5231 10.7477H23.5662V6.76032C23.5662 6.76032 23.5661 6.76031 23.5661 6.7603V6.76017C23.5661 6.76017 21.7119 6.44371 19.9392 6.44371C16.2382 6.44371 13.8192 8.68675 13.8192 12.7475V16.3171H9.70529V21.0007H9.7054V21.0008H13.8192V32.3228C13.8193 32.3228 13.8193 32.3228 13.8193 32.3228V32.323C6.07344 31.1075 0.148438 24.4043 0.148438 16.3173C0.148438 7.36886 7.40255 0.114746 16.351 0.114746Z" fill="white"/>
</svg>
