<svg width="28" height="27" viewBox="0 0 28 27" fill="none" xmlns="http://www.w3.org/2000/svg">
<path fill-rule="evenodd" clip-rule="evenodd" d="M13.8079 0.0615234H8.23626C7.11848 0.0615234 6.13343 0.326961 5.3914 0.526913C5.24064 0.567537 5.09992 0.605457 4.97015 0.637899C4.00952 1.02215 3.24102 1.4064 2.66465 2.1749C1.89615 2.9434 1.5119 3.7119 1.12765 4.48039L1.12765 4.4804C0.7434 5.2489 0.55127 6.40165 0.55127 7.74653V13.3182V18.8898C0.55127 20.0076 0.816709 20.9926 1.01666 21.7347C1.05729 21.8854 1.09521 22.0261 1.12765 22.1559C1.5119 23.1165 1.89615 23.885 2.66465 24.4614C3.43315 25.0378 4.20165 25.6142 4.97015 25.9984C5.73865 26.3827 6.89139 26.5748 8.23626 26.5748H13.8079H19.3795C20.4973 26.5748 21.4824 26.3093 22.2244 26.1094C22.3751 26.0688 22.5159 26.0309 22.6456 25.9984C23.6063 25.6142 24.3748 25.2299 24.9511 24.4614C25.5275 23.6929 26.1039 22.9244 26.4881 22.1559C26.8724 21.3874 27.0645 20.2347 27.0645 18.8898V13.3182V7.74653C27.0645 6.62875 26.7991 5.64369 26.5991 4.90166C26.5585 4.7509 26.5206 4.61017 26.4881 4.4804C26.1039 3.51978 25.7196 2.75128 24.9511 2.1749C24.1826 1.40641 23.4141 1.02216 22.6457 0.637913L22.6456 0.637899C21.8771 0.253649 20.7244 0.0615234 19.3795 0.0615234H13.8079ZM22.645 6.4015C22.645 7.36213 21.8765 7.9385 21.108 7.9385C20.3396 7.9385 19.571 7.17 19.571 6.4015C19.571 5.44088 20.3396 4.8645 21.108 4.8645C21.8765 4.8645 22.645 5.44088 22.645 6.4015ZM13.8071 17.9286C11.3094 17.9286 9.38818 16.0074 9.38818 13.5098C9.38818 11.0121 11.3094 9.09089 13.8071 9.09089C16.3047 9.09089 18.2259 11.0121 18.2259 13.5098C18.2259 16.0074 16.3047 17.9286 13.8071 17.9286ZM13.8071 6.59326C9.96456 6.59326 6.89056 9.66726 6.89056 13.5098C6.89056 17.3523 9.96456 20.4263 13.8071 20.4263C17.6496 20.4263 20.7235 17.3523 20.7235 13.5098C20.7235 9.66726 17.6496 6.59326 13.8071 6.59326Z" fill="white"/>
</svg>
