<svg width="30" height="29" viewBox="0 0 30 29" fill="none" xmlns="http://www.w3.org/2000/svg">
<g clip-path="url(#clip0)">
<path d="M5.90122 15.5644C5.13497 17.0204 6.00497 17.7164 7.98997 18.9054C9.67747 19.9132 12.0087 20.2817 13.5062 20.4291C12.8925 20.9995 15.705 18.3846 7.60497 25.9162C5.88747 27.5075 8.65247 30.0608 10.3687 28.5032L15.015 24.1713C16.7937 25.8255 18.4987 27.4109 19.6612 28.5093C21.3787 30.0728 24.1425 27.5414 22.4437 25.9222C22.3162 25.805 16.1475 20.0847 16.5237 20.4352C18.04 20.2877 20.3362 19.8975 22.0037 18.9115L22.0025 18.9102C23.9875 17.7152 24.8575 17.0204 24.1025 15.5644C23.6462 14.7379 22.4162 14.0467 20.7787 15.2417C20.7787 15.2417 18.5675 16.879 15.0012 16.879C11.4337 16.879 9.22372 15.2417 9.22372 15.2417C7.58747 14.0407 6.35247 14.7379 5.90122 15.5644Z" fill="white"/>
<path d="M14.9986 14.6716C19.3461 14.6716 22.8961 11.3873 22.8961 7.34425C22.8961 3.28425 19.3461 0 14.9986 0C10.6499 0 7.09985 3.28425 7.09985 7.34425C7.09985 11.3873 10.6499 14.6716 14.9986 14.6716ZM14.9986 3.72046C17.1349 3.72046 18.8774 5.34083 18.8774 7.34425C18.8774 9.33074 17.1349 10.9511 14.9986 10.9511C12.8624 10.9511 11.1199 9.33074 11.1199 7.34425C11.1186 5.33962 12.8611 3.72046 14.9986 3.72046Z" fill="white"/>
</g>
<defs>
<clipPath id="clip0">
<rect width="30" height="29" fill="white"/>
</clipPath>
</defs>
</svg>
