<svg width="26" height="21" viewBox="0 0 26 21" fill="none" xmlns="http://www.w3.org/2000/svg">
<path d="M22.934 3.32213C24.008 3.20164 25.0473 2.90902 26 2.4959C25.2898 3.56312 24.3891 4.49262 23.3324 5.23279C23.3498 5.45656 23.3498 5.68033 23.3498 5.92131C23.3498 12.9271 17.98 21 8.17588 21C5.16189 21 2.35576 20.1221 0 18.6246C0.415723 18.6762 0.848767 18.6934 1.28181 18.6934C3.77615 18.6934 6.07995 17.85 7.89873 16.4213C5.57762 16.3697 3.60293 14.8377 2.92738 12.7377C3.2565 12.8066 3.58561 12.8238 3.93205 12.8238C4.41706 12.8238 4.88474 12.7549 5.33511 12.6344C2.89274 12.1525 1.05663 10.018 1.05663 7.45328C1.05663 7.43607 1.05663 7.40164 1.05663 7.38443C1.78414 7.78033 2.59827 8.02131 3.48168 8.03852C2.04397 7.0918 1.10859 5.47377 1.10859 3.63197C1.10859 2.66803 1.36842 1.75574 1.83611 0.963934C4.46902 4.16557 8.40107 6.28279 12.8181 6.50656C12.7315 6.11066 12.6795 5.71475 12.6795 5.30164C12.6795 2.37541 15.07 0 18.0147 0C19.539 0 20.9247 0.636885 21.9121 1.66967C23.1246 1.42869 24.2678 0.998361 25.2898 0.378689C24.8914 1.61803 24.0426 2.66803 22.934 3.32213Z" fill="white"/>
</svg>
