<svg width="34" height="17" viewBox="0 0 34 17" fill="none" xmlns="http://www.w3.org/2000/svg">
<path d="M32.4547 16.9334L27.9142 16.9844C27.9142 16.9844 26.9441 17.1544 25.644 16.3725C23.9365 15.3526 22.3454 12.7009 21.0842 13.0409C19.8229 13.3978 19.8617 15.7775 19.8617 15.7775C19.8617 15.7775 19.8617 16.2875 19.5901 16.5594C19.2796 16.8654 18.6587 16.9334 18.6587 16.9334H16.6407C16.6407 16.9334 12.1585 17.1714 8.2001 13.5678C3.89249 9.64127 0.0893644 1.8392 0.0893644 1.8392C0.0893644 1.8392 -0.124076 1.32926 0.108768 1.07429C0.38042 0.802325 1.09836 0.785327 1.09836 0.785327L5.94928 0.751331C5.94928 0.751331 6.41497 0.819323 6.72542 1.0233C7.01648 1.21028 7.17171 1.53324 7.17171 1.53324C7.17171 1.53324 7.94786 3.26703 8.99566 4.84784C11.033 7.92447 11.9644 8.58739 12.663 8.26443C13.6719 7.78849 13.3615 3.91295 13.3615 3.91295C13.3615 3.91295 13.3809 2.51912 12.857 1.89019C12.4495 1.39725 11.6928 1.26127 11.3435 1.22727C11.0718 1.19328 11.5181 0.632345 12.1002 0.394373C12.9734 0.0204181 14.5257 -0.0135778 16.3497 0.00342012C17.7661 0.0204181 18.1736 0.08841 18.7363 0.207396C20.405 0.564353 19.8423 1.92419 19.8423 5.2048C19.8423 6.25867 19.6289 7.7375 20.502 8.23044C20.8707 8.43441 21.7827 8.26443 24.0529 4.88184C25.1395 3.28403 25.9351 1.38026 25.9351 1.38026C25.9351 1.38026 26.1097 1.0403 26.3814 0.904312C26.653 0.751331 27.0411 0.802325 27.0411 0.802325L32.1637 0.768329C32.1637 0.768329 33.6965 0.598349 33.9488 1.21028C34.201 1.8562 33.3667 3.33502 31.2905 5.78273C27.856 9.79425 27.4874 9.4203 30.3203 11.732C33.0368 13.9418 33.5995 15.0296 33.6965 15.1486C34.822 16.7974 32.4547 16.9334 32.4547 16.9334Z" fill="white"/>
</svg>
