<svg width="26" height="19" viewBox="0 0 26 19" fill="none" xmlns="http://www.w3.org/2000/svg">
<path d="M24.895 2.0075C24.1897 0.70475 23.4244 0.465125 21.866 0.374C20.3092 0.264313 16.3946 0.21875 13.0033 0.21875C9.60537 0.21875 5.68913 0.264313 4.134 0.372313C2.57887 0.465125 1.81187 0.703062 1.10012 2.0075C0.37375 3.30856 0 5.54956 0 9.49494C0 9.49831 0 9.5 0 9.5C0 9.50338 0 9.50506 0 9.50506V9.50844C0 13.4369 0.37375 15.6948 1.10012 16.9824C1.81187 18.2851 2.57725 18.5214 4.13237 18.6311C5.68913 18.7256 9.60537 18.7812 13.0033 18.7812C16.3946 18.7812 20.3092 18.7256 21.8676 18.6327C23.426 18.5231 24.1914 18.2868 24.8966 16.9841C25.6295 15.6965 26 13.4386 26 9.51012C26 9.51012 26 9.50506 26 9.50169C26 9.50169 26 9.49831 26 9.49662C26 5.54956 25.6295 3.30856 24.895 2.0075ZM9.75 14.5625V4.4375L17.875 9.5L9.75 14.5625Z" fill="white"/>
</svg>
